<svg width="48" height="48" viewBox="0 0 48 48" fill="none" xmlns="http://www.w3.org/2000/svg">
<path d="M28.4555 1.33051C25.6344 0.76836 22.707 0.763956 19.8771 1.27253C16.6906 1.84936 13.631 3.11457 10.9663 4.95514C8.47404 6.67022 6.32378 8.87993 4.67841 11.4192C2.72482 14.42 1.49409 17.8861 1.11321 21.4462C7.29763 21.4513 13.4828 21.4469 19.668 21.4484C20.3806 21.4344 21.2377 21.3875 21.7397 21.9973C22.4523 22.8273 23.1671 23.6551 23.879 24.4852C24.0742 24.7039 24.2041 25.0268 24.0778 25.3108C23.9846 25.5463 23.7234 25.6594 23.4834 25.6594C16.0022 25.666 8.52102 25.6498 1.04056 25.6733C1.34805 29.8953 2.85104 34.0212 5.34037 37.4462C7.34754 40.2247 9.97997 42.5489 12.9889 44.1898C16.7104 46.2322 21.008 47.2009 25.2455 46.9668C27.9461 46.8318 30.6233 46.2109 33.1083 45.1439C38.0693 43.0303 42.2297 39.1106 44.6383 34.2854C46.109 31.3697 46.9368 28.1333 47.0608 24.8704C47.1944 21.5915 46.6227 18.2831 45.3795 15.2449C44.2589 12.4921 42.5944 9.96241 40.5153 7.83856C37.695 4.94707 34.1027 2.80855 30.2058 1.73855C30.2014 3.2408 30.2058 4.74305 30.2036 6.24457C30.3496 6.4119 30.4692 6.60124 30.5338 6.8148C32.0911 7.55088 33.6513 8.27962 35.2108 9.0091C35.3657 8.8315 35.5859 8.60987 35.8449 8.70601C36.0599 8.81976 36.0981 9.0979 36.0996 9.31733C36.0812 9.78554 35.908 10.2728 35.5484 10.5877C35.4178 10.7102 35.216 10.7587 35.0516 10.675C33.324 9.87581 31.606 9.05386 29.877 8.2576C29.5343 8.42126 29.1211 8.41832 28.7798 8.2532C27.0515 9.0546 25.3313 9.87287 23.6038 10.6743C23.3403 10.8093 23.0702 10.606 22.9212 10.3969C22.6402 10.0013 22.4802 9.48759 22.5903 9.00543C22.6292 8.81388 22.8156 8.62454 23.0233 8.69426C23.2141 8.72729 23.3153 8.91296 23.4651 9.00616C25.018 8.2554 26.5936 7.55088 28.1436 6.79572C28.2001 6.5983 28.3079 6.41923 28.4488 6.27099C28.4599 4.62416 28.4466 2.97734 28.4555 1.33051ZM16.1893 8.84984C17.2828 9.0979 18.0387 10.2794 17.8039 11.3766C17.6278 12.4415 16.568 13.2597 15.4914 13.1504C14.4464 13.0961 13.5386 12.1912 13.4732 11.1469C13.4079 10.3881 13.7712 9.61088 14.3994 9.17936C14.9102 8.81388 15.5824 8.7016 16.1893 8.84984ZM19.6188 13.8402C21.2289 15.3439 22.8919 16.789 24.5277 18.2633C24.7361 18.4395 24.753 18.7814 24.5732 18.984C24.3318 19.2585 24.0896 19.5322 23.843 19.8015C23.6595 20.0224 23.2926 20.0415 23.0908 19.836C22.081 18.9392 21.0755 18.0366 20.0672 17.1383C19.701 16.8161 19.3524 16.4705 18.948 16.1952C18.9546 17.6212 18.9502 19.0471 18.9502 20.473C18.9561 20.6807 18.7983 20.9053 18.5796 20.9134C16.6664 20.9156 14.7539 20.9134 12.8406 20.9148C12.5985 20.9449 12.3952 20.7042 12.4055 20.473C12.4047 19.0449 12.4069 17.6175 12.4047 16.1901C11.8815 16.571 11.425 17.0326 10.934 17.4524C10.0453 18.2516 9.15069 19.0449 8.26122 19.8426C8.0528 20.0459 7.68586 20.0158 7.50239 19.7942C7.26021 19.5205 7.01435 19.2482 6.77291 18.973C6.57916 18.7374 6.64962 18.358 6.90281 18.1936C8.54156 16.7273 10.195 15.2764 11.8066 13.7801C12.197 13.6215 12.6542 13.7456 13.0703 13.7067C15.1502 13.7067 17.2293 13.7059 19.3083 13.7067C19.4265 13.7015 19.5403 13.7544 19.6188 13.8402ZM35.9946 15.2375C36.7058 15.3718 37.3274 15.8878 37.5938 16.56C37.9673 17.4472 37.6657 18.5605 36.8841 19.1264C36.0739 19.7626 34.8175 19.6981 34.0755 18.9833C33.4187 18.3896 33.1993 17.3827 33.5354 16.5659C33.9009 15.6096 34.9936 15.0159 35.9946 15.2375ZM37.4323 20.5361C37.4338 21.9335 37.4308 23.3308 37.433 24.7281C39.427 25.6146 41.0188 27.3605 41.7006 29.4352C42.2268 31.016 42.2334 32.767 41.7174 34.3514C41.0114 36.556 39.278 38.3988 37.1219 39.242C35.5631 39.8621 33.804 39.9568 32.1843 39.5224C29.7097 38.8721 27.6276 36.931 26.7976 34.5114L26.7499 34.5254C26.3786 35.1983 25.9823 35.8581 25.6007 36.5259C25.473 36.771 25.1236 36.8019 24.9115 36.6522C24.0199 36.0812 23.1282 35.5102 22.2358 34.9407C22.0788 34.849 21.9782 34.6707 21.9804 34.4901C21.9885 34.3258 22.1066 34.2025 22.1859 34.0689C22.2997 33.9008 22.3892 33.6711 22.6138 33.6315C22.9631 33.5596 23.2133 33.8708 23.4988 34.0124C24.7046 31.9561 25.9023 29.8953 27.1051 27.8375C27.1807 27.6863 27.3561 27.6122 27.5183 27.6269C29.5621 27.6269 31.6053 27.6218 33.6484 27.6291C33.6858 27.0347 33.6491 26.4329 33.6667 25.8355C32.0089 25.8201 30.3503 25.837 28.6925 25.8274C28.4239 25.8069 28.1847 25.5867 28.1604 25.3159C28.1575 25.0458 28.1604 24.7758 28.1597 24.5064C28.1494 24.1879 28.4525 23.9179 28.7659 23.9436C30.3929 23.9458 32.0192 23.9391 33.6462 23.9472C33.688 22.82 33.6499 21.6817 33.6645 20.5501C33.6822 20.2463 33.9801 20.0188 34.2729 20.0188C35.1059 20.0166 35.9381 20.018 36.7711 20.018C37.0756 19.9975 37.4095 20.2162 37.4323 20.5361ZM18.7623 26.2237C18.8717 26.2641 18.9245 26.3793 18.9385 26.4879C18.5172 29.306 18.0967 32.1234 17.674 34.9407C17.6534 35.1161 17.503 35.2622 17.3327 35.2967C16.251 35.3003 15.1685 35.2967 14.086 35.2989C13.8791 35.3194 13.6831 35.1418 13.6589 34.9407C13.2413 32.1483 12.823 29.3559 12.4062 26.5635C12.3629 26.3888 12.5045 26.1885 12.688 26.1958C14.5983 26.1936 16.5093 26.1958 18.4196 26.1944C18.5334 26.2039 18.6581 26.1679 18.7623 26.2237Z" fill="#0072BC"/>
<path d="M40.3372 31.625C40.263 29.6398 39.1277 27.745 37.4347 26.7146C37.4259 27.8639 37.4383 29.0138 37.4288 30.1631C37.3723 30.417 37.1015 30.5711 36.852 30.5638C34.2511 30.5623 31.6502 30.5645 29.0493 30.5623C28.7396 31.0915 28.4358 31.6243 28.1276 32.1541C28.1657 34.4409 29.6672 36.6073 31.7603 37.5144C33.1378 38.1301 34.7472 38.205 36.1753 37.7169C37.442 37.2964 38.5553 36.4393 39.3002 35.3333C40.0348 34.2523 40.4069 32.9306 40.3372 31.625Z" fill="#0072BC"/>
<path d="M25.6471 0.0565206C22.1179 -0.186394 18.5329 0.355209 15.2392 1.65198C10.3787 3.54905 6.18382 7.08709 3.48167 11.5491C1.83704 14.2498 0.736217 17.28 0.268734 20.407C-0.44313 25.1038 0.2658 30.0091 2.31773 34.2964C3.88604 37.5982 6.22199 40.5307 9.08633 42.8006C11.7966 44.9582 14.9801 46.5185 18.3487 47.3287C23.0396 48.4677 28.0748 48.1528 32.5816 46.4187C37.4839 44.5517 41.7243 41.0188 44.4616 36.5458C46.1268 33.8414 47.2423 30.801 47.7216 27.6614C48.2617 24.1381 48.0158 20.4936 46.9855 17.0803C46.0219 13.8659 44.3655 10.8644 42.1719 8.32588C39.2775 4.96398 35.4349 2.42475 31.1989 1.10083C29.3987 0.533543 27.5303 0.18495 25.6471 0.0565206ZM28.4549 1.33054C28.4461 2.97736 28.4593 4.62419 28.4483 6.27102C28.3074 6.41926 28.1996 6.59833 28.143 6.79574C26.5931 7.5509 25.0174 8.25543 23.4645 9.00619C23.3148 8.91299 23.2136 8.72731 23.0227 8.69429C22.8151 8.62457 22.6287 8.81391 22.5898 9.00545C22.4797 9.48761 22.6397 10.0013 22.9207 10.3969C23.0697 10.606 23.3398 10.8093 23.6032 10.6743C25.3308 9.8729 27.051 9.05462 28.7793 8.25323C29.1206 8.41835 29.5338 8.42129 29.8765 8.25763C31.6055 9.05389 33.3235 9.87584 35.0511 10.675C35.2155 10.7587 35.4173 10.7103 35.5479 10.5877C35.9075 10.2729 36.0807 9.78557 36.0991 9.31735C36.0976 9.09792 36.0594 8.81978 35.8444 8.70603C35.5853 8.60989 35.3652 8.83152 35.2103 9.00912C33.6508 8.27965 32.0906 7.5509 30.5333 6.81482C30.4687 6.60126 30.3491 6.41192 30.203 6.2446C30.2053 4.74308 30.2008 3.24083 30.2053 1.73857C34.1022 2.80857 37.6945 4.9471 40.5148 7.83859C42.5939 9.96243 44.2584 12.4921 45.379 15.2449C46.6222 18.2832 47.1939 21.5915 47.0603 24.8705C46.9363 28.1333 46.1085 31.3697 44.6378 34.2854C42.2292 39.1107 38.0688 43.0303 33.1078 45.1439C30.6228 46.211 27.9456 46.8318 25.2449 46.9669C21.0075 47.201 16.7099 46.2323 12.9884 44.1899C9.97946 42.5489 7.34703 40.2247 5.33986 37.4462C2.85053 34.0212 1.34754 29.8953 1.04005 25.6733C8.52051 25.6499 16.0017 25.666 23.4829 25.6594C23.7229 25.6594 23.9841 25.5464 24.0773 25.3108C24.2036 25.0268 24.0737 24.7039 23.8785 24.4852C23.1666 23.6552 22.4518 22.8274 21.7392 21.9973C21.2372 21.3875 20.38 21.4344 19.6674 21.4484C13.4823 21.4469 7.29712 21.4513 1.1127 21.4462C1.49358 17.8861 2.72431 14.42 4.6779 11.4192C6.32327 8.87996 8.47354 6.67025 10.9658 4.95517C13.6305 3.1146 16.6901 1.84939 19.8766 1.27256C22.7064 0.763981 25.6339 0.768385 28.4549 1.33054Z" fill="white"/>
<path d="M16.189 8.84993C15.5821 8.70169 14.9098 8.81397 14.3991 9.17944C13.7709 9.61097 13.4076 10.3881 13.4729 11.147C13.5382 12.1913 14.446 13.0962 15.4911 13.1505C16.5677 13.2598 17.6274 12.4415 17.8035 11.3767C18.0384 10.2795 17.2825 9.09798 16.189 8.84993Z" fill="white"/>
<path d="M19.6183 13.8403C19.5398 13.7544 19.426 13.7016 19.3079 13.7067C17.2288 13.706 15.1497 13.7067 13.0699 13.7067C12.6538 13.7456 12.1966 13.6216 11.8062 13.7801C10.1946 15.2765 8.54112 16.7274 6.90236 18.1937C6.64917 18.3581 6.57871 18.7375 6.77246 18.973C7.01391 19.2483 7.25976 19.5205 7.50194 19.7943C7.68541 20.0159 8.05235 20.046 8.26077 19.8427C9.15024 19.045 10.0448 18.2516 10.9336 17.4524C11.4245 17.0327 11.881 16.5711 12.4043 16.1902C12.4065 17.6176 12.4043 19.045 12.405 20.4731C12.3947 20.7043 12.598 20.945 12.8402 20.9149C14.7534 20.9134 16.6659 20.9156 18.5791 20.9134C18.7978 20.9054 18.9556 20.6808 18.9498 20.4731C18.9498 19.0472 18.9542 17.6212 18.9476 16.1953C19.3519 16.4705 19.7005 16.8162 20.0667 17.1383C21.0751 18.0366 22.0805 18.9393 23.0903 19.8361C23.2921 20.0416 23.6591 20.0225 23.8425 19.8016C24.0891 19.5323 24.3313 19.2585 24.5728 18.9841C24.7526 18.7815 24.7357 18.4395 24.5273 18.2634C22.8914 16.789 21.2285 15.344 19.6183 13.8403Z" fill="white"/>
<path d="M35.9942 15.2376C34.9931 15.0159 33.9004 15.6096 33.5349 16.5659C33.1988 17.3827 33.4182 18.3896 34.075 18.9833C34.817 19.6981 36.0734 19.7627 36.8836 19.1264C37.6652 18.5606 37.9668 17.4473 37.5933 16.56C37.3269 15.8878 36.7053 15.3719 35.9942 15.2376Z" fill="white"/>
<path d="M37.4318 20.5362C37.4091 20.2162 37.0752 19.9975 36.7706 20.0181C35.9376 20.0181 35.1054 20.0166 34.2725 20.0188C33.9796 20.0188 33.6817 20.2463 33.6641 20.5501C33.6494 21.6818 33.6876 22.82 33.6457 23.9472C32.0187 23.9392 30.3924 23.9458 28.7654 23.9436C28.452 23.9179 28.1489 24.188 28.1592 24.5065C28.1599 24.7758 28.157 25.0459 28.1599 25.3159C28.1842 25.5867 28.4234 25.8069 28.692 25.8274C30.3499 25.837 32.0084 25.8201 33.6663 25.8355C33.6487 26.4329 33.6854 27.0347 33.6479 27.6291C31.6048 27.6218 29.5617 27.6269 27.5178 27.6269C27.3556 27.6122 27.1802 27.6864 27.1046 27.8375C25.9018 29.8953 24.7041 31.9561 23.4983 34.0124C23.2128 33.8708 22.9626 33.5596 22.6133 33.6315C22.3887 33.6712 22.2992 33.9009 22.1854 34.0689C22.1062 34.2025 21.988 34.3258 21.9799 34.4902C21.9777 34.6707 22.0783 34.849 22.2353 34.9408C23.1277 35.5103 24.0194 36.0812 24.9111 36.6522C25.1231 36.8019 25.4725 36.7711 25.6002 36.5259C25.9818 35.8581 26.3781 35.1984 26.7494 34.5254L26.7971 34.5114C27.6271 36.931 29.7092 38.8722 32.1838 39.5224C33.8035 39.9568 35.5626 39.8622 37.1214 39.242C39.2775 38.3988 41.011 36.556 41.717 34.3515C42.2329 32.767 42.2263 31.016 41.7001 29.4352C41.0183 27.3605 39.4265 25.6146 37.4326 24.7281C37.4304 23.3308 37.4333 21.9335 37.4318 20.5362ZM40.3373 31.6251C40.407 32.9307 40.0349 34.2524 39.3003 35.3334C38.5554 36.4393 37.4421 37.2965 36.1754 37.717C34.7473 38.2051 33.1379 38.1302 31.7604 37.5145C29.6673 36.6074 28.1658 34.441 28.1277 32.1542C28.4359 31.6244 28.7397 31.0916 29.0494 30.5624C31.6503 30.5646 34.2512 30.5624 36.8521 30.5639C37.1016 30.5712 37.3724 30.4171 37.4289 30.1632C37.4384 29.014 37.426 27.864 37.4348 26.7147C39.1278 27.7451 40.2631 29.6399 40.3373 31.6251Z" fill="white"/>
<path d="M18.7619 26.2237C18.6576 26.168 18.5329 26.2039 18.4191 26.1944C16.5088 26.1959 14.5978 26.1937 12.6875 26.1959C12.504 26.1885 12.3624 26.3889 12.4057 26.5635C12.8226 29.3559 13.2409 32.1484 13.6584 34.9408C13.6827 35.1419 13.8786 35.3195 14.0856 35.2989C15.168 35.2967 16.2505 35.3004 17.3323 35.2967C17.5025 35.2622 17.653 35.1162 17.6735 34.9408C18.0962 32.1234 18.5167 29.306 18.938 26.4879C18.924 26.3793 18.8712 26.2641 18.7619 26.2237Z" fill="white"/>
</svg>
