<svg id="Layer_1" data-name="Layer 1" xmlns="http://www.w3.org/2000/svg" width="30" height="38.23" viewBox="0 0 30 38.23">
    <defs>
        <style>.cls-1{fill:#c00;}</style>
    </defs>
    <title>redgate-logo</title>
    <polygon class="cls-1" points="21.81 17.37 11.08 17.1 14.81 21.04 21.81 20.86 21.81 17.37" />
    <polygon class="cls-1" points="20.17 26.72 21.81 26.53 21.81 23.18 17.08 23.44 20.17 26.72" />
    <polygon class="cls-1" points="0 28.82 17.39 27 14.04 23.63 0 24.44 0 28.82" />
    <polygon class="cls-1" points="7.51 17.01 0 16.82 0 21.41 11.57 21.13 7.51 17.01" />
    <polygon class="cls-1" points="8.41 14.28 21.81 15.05 21.81 11.68 4.21 9.84 8.41 14.28" />
    <polygon class="cls-1" points="0 9.41 0 13.79 4.59 14.05 0 9.41" />
    <path class="cls-1" d="M22.75,29a1.34,1.34,0,0,0,.92-1.41v-17a1.34,1.34,0,0,0-.92-1.41L0,6V3.12C2.58,1.28,8,0,14.34,0S26.1,1.28,28.67,3.12v32c-2.58,1.84-8,3.12-14.34,3.12S2.58,37,0,35.11V32.25L22.75,29" />
</svg>